<svg id="visual" viewBox="0 0 1920 1080" width="1920" height="1080" xmlns="http://www.w3.org/2000/svg" xmlns:xlink="http://www.w3.org/1999/xlink" version="1.1"><rect x="0" y="0" width="1920" height="1080" fill="transparent"></rect><defs><linearGradient id="grad1_0" x1="43.8%" y1="0%" x2="100%" y2="100%"><stop offset="14.444444444444446%" stop-color="#001220" stop-opacity="1"></stop><stop offset="85.55555555555554%" stop-color="#001220" stop-opacity="1"></stop></linearGradient></defs><defs><linearGradient id="grad2_0" x1="0%" y1="0%" x2="56.3%" y2="100%"><stop offset="14.444444444444446%" stop-color="#001220" stop-opacity="1"></stop><stop offset="85.55555555555554%" stop-color="#001220" stop-opacity="1"></stop></linearGradient></defs><g transform="translate(1920, 0)"><path d="M0 972C-124.5 951.7 -249 931.4 -367.8 887.8C-486.5 844.3 -599.4 777.5 -687.3 687.3C-775.2 597.1 -838.1 483.5 -881.4 365.1C-924.7 246.6 -948.3 123.3 -972 0L0 0Z" fill="#ffc107"></path></g><g transform="translate(0, 1080)"><path d="M0 -972C125 -928.3 249.9 -884.6 336.8 -813C423.6 -741.4 472.2 -641.8 572 -572C671.9 -502.3 822.8 -462.3 898 -372C973.2 -281.6 972.6 -140.8 972 0L0 0Z" fill="#ffc107"></path></g></svg>